<?xml version="1.0" encoding="UTF-8" standalone="no"?><!DOCTYPE svg PUBLIC "-//W3C//DTD SVG 1.1//EN" "http://www.w3.org/Graphics/SVG/1.1/DTD/svg11.dtd"><svg width="100%" height="100%" viewBox="0 0 248 58" version="1.1" xmlns="http://www.w3.org/2000/svg" xmlns:xlink="http://www.w3.org/1999/xlink" xml:space="preserve" xmlns:serif="http://www.serif.com/" style="fill-rule:evenodd;clip-rule:evenodd;stroke-linejoin:round;stroke-miterlimit:2;"><path d="M29.018,36.571c0,2.995 -0.808,5.552 -2.424,7.672c-1.617,2.094 -3.552,3.14 -5.804,3.14c-1.352,0.212 -2.703,0.093 -4.055,-0.357c-2.729,-0.901 -4.134,-3.008 -4.213,-6.321l-0,-9.938c0.636,-1.643 2.106,-2.915 4.412,-3.816c2.65,-1.033 5.3,-0.901 7.95,0.398c1.272,0.609 2.279,1.749 3.021,3.418c0.742,1.59 1.113,3.366 1.113,5.327l0,0.477Zm-7.195,-19.796c-3.312,0 -6.413,0.848 -9.301,2.544l-0,-13.118c-0,-1.696 -0.61,-3.153 -1.829,-4.372c-1.192,-1.219 -2.65,-1.829 -4.373,-1.829l-0.119,0c-1.722,0 -3.18,0.61 -4.372,1.829c-1.219,1.219 -1.829,2.676 -1.829,4.372l0,48.218c0,0.716 0.252,1.325 0.755,1.829c0.477,0.477 1.074,0.715 1.789,0.715l7.473,0c0.689,0 1.286,-0.238 1.789,-0.715c0.477,-0.504 0.716,-1.1 0.716,-1.789l-0,-0.04c2.888,1.696 5.989,2.544 9.301,2.544c5.274,0 9.779,-1.961 13.516,-5.883c3.736,-3.922 5.605,-8.652 5.605,-14.191c-0,-5.565 -1.869,-10.309 -5.605,-14.231c-3.737,-3.922 -8.242,-5.883 -13.516,-5.883Z" style="fill:url(#_Linear1);fill-rule:nonzero;"/><path d="M46.39,36.849c0.026,6.202 1.59,11.237 4.69,15.106c3.525,4.478 8.335,6.095 14.43,4.849c1.166,-0.238 4.253,-1.828 9.262,-4.77l0,0.04c0,1.087 0.398,2.014 1.193,2.783c0.768,0.768 1.696,1.152 2.782,1.152l4.572,0c1.113,0 2.053,-0.384 2.822,-1.152c0.795,-0.795 1.192,-1.736 1.192,-2.823l0,-29.336c0,-1.67 -0.596,-3.101 -1.788,-4.293c-1.193,-1.193 -2.637,-1.789 -4.333,-1.789l-0.159,0c-1.696,0 -3.141,0.596 -4.333,1.789c-1.193,1.192 -1.789,2.623 -1.789,4.293l0,16.894c-0.026,0.053 -0.04,0.066 -0.04,0.04c-0.026,0.371 -0.066,0.689 -0.119,0.954c-0.318,1.802 -1.709,3.458 -4.174,4.969c-2.835,1.722 -5.552,1.948 -8.149,0.676c-2.491,-1.219 -3.736,-4.068 -3.736,-8.547l-0,-14.986c-0,-1.67 -0.597,-3.101 -1.789,-4.293c-1.193,-1.193 -2.637,-1.789 -4.333,-1.789l-0.119,0c-1.67,0 -3.101,0.596 -4.294,1.789c-1.192,1.192 -1.788,2.623 -1.788,4.293l-0,14.151Z" style="fill:url(#_Linear2);fill-rule:nonzero;"/><path d="M121.44,36.571c-0,2.995 -0.808,5.552 -2.425,7.672c-1.616,2.094 -3.551,3.14 -5.804,3.14c-1.351,0.212 -2.703,0.093 -4.054,-0.357c-2.73,-0.901 -4.134,-3.008 -4.214,-6.321l0,-9.938c0.636,-1.643 2.107,-2.915 4.413,-3.816c2.65,-1.033 5.3,-0.901 7.95,0.398c1.272,0.609 2.279,1.749 3.021,3.418c0.742,1.59 1.113,3.366 1.113,5.327l-0,0.477Zm-7.195,-19.796c-3.313,0 -6.413,0.848 -9.302,2.544l0,-13.118c0,-1.696 -0.609,-3.153 -1.828,-4.372c-1.193,-1.219 -2.65,-1.829 -4.373,-1.829l-0.119,0c-1.723,0 -3.18,0.61 -4.373,1.829c-1.219,1.219 -1.828,2.676 -1.828,4.372l-0,48.218c-0,0.716 0.251,1.325 0.755,1.829c0.477,0.477 1.073,0.715 1.789,0.715l7.473,0c0.689,0 1.285,-0.238 1.789,-0.715c0.477,-0.504 0.715,-1.1 0.715,-1.789l0,-0.04c2.889,1.696 5.989,2.544 9.302,2.544c5.274,0 9.779,-1.961 13.515,-5.883c3.737,-3.922 5.605,-8.652 5.605,-14.191c0,-5.565 -1.868,-10.309 -5.605,-14.231c-3.736,-3.922 -8.241,-5.883 -13.515,-5.883Z" style="fill:url(#_Linear3);fill-rule:nonzero;"/><path d="M167.551,36.571c0,2.995 -0.808,5.552 -2.425,7.672c-1.616,2.094 -3.551,3.14 -5.803,3.14c-1.352,0.212 -2.703,0.093 -4.055,-0.357c-2.729,-0.901 -4.134,-3.008 -4.213,-6.321l-0,-9.938c0.636,-1.643 2.106,-2.915 4.412,-3.816c2.65,-1.033 5.3,-0.901 7.95,0.398c1.272,0.609 2.279,1.749 3.021,3.418c0.742,1.59 1.113,3.366 1.113,5.327l0,0.477Zm-7.195,-19.796c-3.312,0 -6.413,0.848 -9.301,2.544l-0,-13.118c-0,-1.696 -0.61,-3.153 -1.829,-4.372c-1.193,-1.219 -2.65,-1.829 -4.373,-1.829l-0.119,0c-1.722,0 -3.18,0.61 -4.373,1.829c-1.219,1.219 -1.828,2.676 -1.828,4.372l-0,48.218c-0,0.716 0.252,1.325 0.755,1.829c0.477,0.477 1.073,0.715 1.789,0.715l7.473,0c0.689,0 1.286,-0.238 1.789,-0.715c0.477,-0.504 0.716,-1.1 0.716,-1.789l-0,-0.04c2.888,1.696 5.989,2.544 9.301,2.544c5.274,0 9.779,-1.961 13.516,-5.883c3.736,-3.922 5.605,-8.652 5.605,-14.191c-0,-5.565 -1.869,-10.309 -5.605,-14.231c-3.737,-3.922 -8.242,-5.883 -13.516,-5.883Z" style="fill:url(#_Linear4);fill-rule:nonzero;"/><path d="M198.597,50.484c-0,1.776 -0.636,3.299 -1.908,4.571c-1.246,1.272 -2.769,1.908 -4.571,1.908l-0.12,0c-1.802,0 -3.326,-0.636 -4.571,-1.908c-1.272,-1.272 -1.908,-2.795 -1.908,-4.571l-0,-41.103c-0,-1.802 0.636,-3.339 1.908,-4.611c1.245,-1.245 2.769,-1.868 4.571,-1.868l0.12,-0c1.802,-0 3.325,0.623 4.571,1.868c1.272,1.272 1.908,2.809 1.908,4.611l-0,41.103Z" style="fill:url(#_Linear5);fill-rule:nonzero;"/><path d="M225.628,26.156c2.252,0 4.306,0.623 6.161,1.869c1.802,1.219 3.114,2.822 3.936,4.809l-20.234,0c0.848,-1.987 2.173,-3.59 3.975,-4.809c1.855,-1.246 3.909,-1.869 6.162,-1.869Zm17.649,27.111c0.345,-1.458 0.04,-2.77 -0.914,-3.936c-0.927,-1.192 -2.133,-1.775 -3.617,-1.749l-13.118,0c-2.306,0 -4.399,-0.649 -6.281,-1.948c-1.828,-1.245 -3.14,-2.901 -3.935,-4.969l28.183,0c1.06,0 1.975,-0.357 2.743,-1.073c0.769,-0.742 1.153,-1.63 1.153,-2.663l-0,-0.04c-0,-5.565 -2.027,-10.309 -6.082,-14.231c-4.028,-3.922 -8.891,-5.883 -14.589,-5.883c-0.397,0 -0.795,0.013 -1.192,0.04c-0.398,-0.027 -0.795,-0.04 -1.193,-0.04c-5.697,0 -10.574,1.961 -14.628,5.883c-4.028,3.922 -6.042,8.666 -6.042,14.231c-0,5.539 2.014,10.269 6.042,14.191c4.054,3.922 8.931,5.883 14.628,5.883c0.398,0 0.795,-0.013 1.193,-0.039c0.397,0.026 0.795,0.039 1.192,0.039c4.081,0 8.07,-0.013 11.965,-0.039c1.06,-0.027 2.015,-0.371 2.863,-1.034c0.821,-0.662 1.351,-1.51 1.59,-2.544l0.039,-0.079Z" style="fill:url(#_Linear6);fill-rule:nonzero;"/><defs><linearGradient id="_Linear1" x1="0" y1="0" x2="1" y2="0" gradientUnits="userSpaceOnUse" gradientTransform="matrix(225.628,51.3035,-11.8595,52.157,0,0)"><stop offset="0" style="stop-color:#00cdff;stop-opacity:1"/><stop offset="1" style="stop-color:#003c4a;stop-opacity:1"/></linearGradient><linearGradient id="_Linear2" x1="0" y1="0" x2="1" y2="0" gradientUnits="userSpaceOnUse" gradientTransform="matrix(225.628,51.3035,-11.8595,52.157,0,0)"><stop offset="0" style="stop-color:#00cdff;stop-opacity:1"/><stop offset="1" style="stop-color:#003c4a;stop-opacity:1"/></linearGradient><linearGradient id="_Linear3" x1="0" y1="0" x2="1" y2="0" gradientUnits="userSpaceOnUse" gradientTransform="matrix(225.628,51.3035,-11.8595,52.157,0,0)"><stop offset="0" style="stop-color:#00cdff;stop-opacity:1"/><stop offset="1" style="stop-color:#003c4a;stop-opacity:1"/></linearGradient><linearGradient id="_Linear4" x1="0" y1="0" x2="1" y2="0" gradientUnits="userSpaceOnUse" gradientTransform="matrix(225.628,51.3035,-11.8595,52.157,0,0)"><stop offset="0" style="stop-color:#00cdff;stop-opacity:1"/><stop offset="1" style="stop-color:#003c4a;stop-opacity:1"/></linearGradient><linearGradient id="_Linear5" x1="0" y1="0" x2="1" y2="0" gradientUnits="userSpaceOnUse" gradientTransform="matrix(225.628,51.3035,-11.8595,52.157,0,0)"><stop offset="0" style="stop-color:#00cdff;stop-opacity:1"/><stop offset="1" style="stop-color:#003c4a;stop-opacity:1"/></linearGradient><linearGradient id="_Linear6" x1="0" y1="0" x2="1" y2="0" gradientUnits="userSpaceOnUse" gradientTransform="matrix(225.628,51.3035,-11.8595,52.157,0,0)"><stop offset="0" style="stop-color:#00cdff;stop-opacity:1"/><stop offset="1" style="stop-color:#003c4a;stop-opacity:1"/></linearGradient></defs></svg>