<?xml version="1.0" encoding="UTF-8" standalone="no"?><!DOCTYPE svg PUBLIC "-//W3C//DTD SVG 1.1//EN" "http://www.w3.org/Graphics/SVG/1.1/DTD/svg11.dtd"><svg width="100%" height="100%" viewBox="0 0 364 101" version="1.1" xmlns="http://www.w3.org/2000/svg" xmlns:xlink="http://www.w3.org/1999/xlink" xml:space="preserve" xmlns:serif="http://www.serif.com/" style="fill-rule:evenodd;clip-rule:evenodd;stroke-linecap:round;stroke-linejoin:round;stroke-miterlimit:1.5;"><path d="M17.656,17.656c17.887,-17.888 46.932,-17.888 64.82,-0c17.887,17.887 17.887,46.932 -0,64.82c-17.888,17.887 -46.933,17.887 -64.82,-0c-17.888,-17.888 -17.888,-46.933 -0,-64.82Z" style="fill:#00cdff;fill-opacity:0.6;stroke:#00cdff;stroke-width:8.48px;"/><path d="M26.514,26.514c10.557,-10.558 26.808,-11.449 33.6,-4.658c6.791,6.792 -11.528,5.616 -22.085,16.173c-10.557,10.557 -9.381,28.876 -16.173,22.085c-6.791,-6.792 -5.9,-23.043 4.658,-33.6Z" style="fill:#fff;fill-opacity:0.75;"/><path d="M72.299,72.299c-5.503,5.502 -14.461,5.479 -18.059,1.882c-3.597,-3.598 6.456,-2.48 11.959,-7.982c5.502,-5.503 4.384,-15.556 7.982,-11.959c3.597,3.598 3.62,12.556 -1.882,18.059Z" style="fill:#fff;fill-opacity:0.75;"/><path d="M145.446,69.411c-0,2.995 -0.808,5.552 -2.425,7.672c-1.617,2.094 -3.551,3.141 -5.804,3.141c-1.351,0.212 -2.703,0.092 -4.054,-0.358c-2.73,-0.901 -4.134,-3.008 -4.214,-6.32l0,-9.938c0.636,-1.643 2.107,-2.915 4.412,-3.816c2.651,-1.034 5.301,-0.901 7.951,0.397c1.272,0.61 2.279,1.749 3.021,3.419c0.742,1.59 1.113,3.365 1.113,5.326l-0,0.477Zm-7.195,-19.796c-3.313,0 -6.413,0.848 -9.302,2.544l0,-13.117c0,-1.697 -0.609,-3.154 -1.828,-4.373c-1.193,-1.219 -2.651,-1.829 -4.373,-1.829l-0.119,0c-1.723,0 -3.18,0.61 -4.373,1.829c-1.219,1.219 -1.829,2.676 -1.829,4.373l0,48.218c0,0.715 0.252,1.325 0.756,1.828c0.477,0.477 1.073,0.716 1.789,0.716l7.473,-0c0.689,-0 1.285,-0.239 1.789,-0.716c0.477,-0.503 0.715,-1.1 0.715,-1.789l0,-0.039c2.889,1.696 5.989,2.544 9.302,2.544c5.274,-0 9.779,-1.961 13.515,-5.883c3.737,-3.923 5.605,-8.653 5.605,-14.192c0,-5.565 -1.868,-10.308 -5.605,-14.23c-3.736,-3.923 -8.241,-5.884 -13.515,-5.884Z" style="fill:url(#_Linear1);fill-rule:nonzero;"/><path d="M162.817,69.69c0.027,6.201 1.59,11.236 4.691,15.105c3.524,4.479 8.334,6.095 14.429,4.85c1.166,-0.239 4.254,-1.829 9.262,-4.77l0,0.039c0,1.087 0.398,2.014 1.193,2.783c0.769,0.768 1.696,1.153 2.783,1.153l4.571,-0c1.113,-0 2.054,-0.385 2.822,-1.153c0.795,-0.795 1.193,-1.736 1.193,-2.822l-0,-29.337c-0,-1.669 -0.596,-3.1 -1.789,-4.293c-1.193,-1.192 -2.637,-1.789 -4.333,-1.789l-0.159,0c-1.696,0 -3.14,0.597 -4.333,1.789c-1.192,1.193 -1.789,2.624 -1.789,4.293l0,16.895c-0.026,0.053 -0.039,0.066 -0.039,0.039c-0.027,0.371 -0.067,0.689 -0.12,0.954c-0.318,1.802 -1.709,3.459 -4.173,4.969c-2.836,1.723 -5.552,1.948 -8.149,0.676c-2.491,-1.219 -3.737,-4.068 -3.737,-8.547l-0,-14.986c-0,-1.669 -0.596,-3.1 -1.789,-4.293c-1.192,-1.192 -2.637,-1.789 -4.333,-1.789l-0.119,0c-1.67,0 -3.101,0.597 -4.293,1.789c-1.193,1.193 -1.789,2.624 -1.789,4.293l0,14.152Z" style="fill:url(#_Linear2);fill-rule:nonzero;"/><path d="M237.867,69.411c0,2.995 -0.808,5.552 -2.424,7.672c-1.617,2.094 -3.552,3.141 -5.804,3.141c-1.352,0.212 -2.703,0.092 -4.055,-0.358c-2.729,-0.901 -4.134,-3.008 -4.213,-6.32l-0,-9.938c0.636,-1.643 2.106,-2.915 4.412,-3.816c2.65,-1.034 5.3,-0.901 7.95,0.397c1.272,0.61 2.279,1.749 3.021,3.419c0.742,1.59 1.113,3.365 1.113,5.326l0,0.477Zm-7.195,-19.796c-3.312,0 -6.413,0.848 -9.301,2.544l-0,-13.117c-0,-1.697 -0.61,-3.154 -1.829,-4.373c-1.192,-1.219 -2.65,-1.829 -4.373,-1.829l-0.119,0c-1.722,0 -3.18,0.61 -4.372,1.829c-1.219,1.219 -1.829,2.676 -1.829,4.373l-0,48.218c-0,0.715 0.252,1.325 0.755,1.828c0.477,0.477 1.074,0.716 1.789,0.716l7.473,-0c0.689,-0 1.286,-0.239 1.789,-0.716c0.477,-0.503 0.716,-1.1 0.716,-1.789l-0,-0.039c2.888,1.696 5.989,2.544 9.301,2.544c5.274,-0 9.779,-1.961 13.516,-5.883c3.736,-3.923 5.605,-8.653 5.605,-14.192c-0,-5.565 -1.869,-10.308 -5.605,-14.23c-3.737,-3.923 -8.242,-5.884 -13.516,-5.884Z" style="fill:url(#_Linear3);fill-rule:nonzero;"/><path d="M283.979,69.411c-0,2.995 -0.809,5.552 -2.425,7.672c-1.617,2.094 -3.551,3.141 -5.804,3.141c-1.351,0.212 -2.703,0.092 -4.054,-0.358c-2.73,-0.901 -4.134,-3.008 -4.214,-6.32l0,-9.938c0.636,-1.643 2.107,-2.915 4.412,-3.816c2.65,-1.034 5.301,-0.901 7.951,0.397c1.272,0.61 2.279,1.749 3.021,3.419c0.742,1.59 1.113,3.365 1.113,5.326l-0,0.477Zm-7.195,-19.796c-3.313,0 -6.413,0.848 -9.302,2.544l0,-13.117c0,-1.697 -0.61,-3.154 -1.829,-4.373c-1.192,-1.219 -2.65,-1.829 -4.372,-1.829l-0.119,0c-1.723,0 -3.181,0.61 -4.373,1.829c-1.219,1.219 -1.829,2.676 -1.829,4.373l0,48.218c0,0.715 0.252,1.325 0.756,1.828c0.477,0.477 1.073,0.716 1.788,0.716l7.474,-0c0.689,-0 1.285,-0.239 1.788,-0.716c0.478,-0.503 0.716,-1.1 0.716,-1.789l0,-0.039c2.889,1.696 5.989,2.544 9.302,2.544c5.273,-0 9.779,-1.961 13.515,-5.883c3.737,-3.923 5.605,-8.653 5.605,-14.192c0,-5.565 -1.868,-10.308 -5.605,-14.23c-3.736,-3.923 -8.242,-5.884 -13.515,-5.884Z" style="fill:url(#_Linear4);fill-rule:nonzero;"/><path d="M315.024,83.324c0,1.776 -0.636,3.3 -1.908,4.572c-1.245,1.272 -2.769,1.908 -4.571,1.908l-0.119,-0c-1.802,-0 -3.326,-0.636 -4.572,-1.908c-1.272,-1.272 -1.908,-2.796 -1.908,-4.572l0,-41.102c0,-1.802 0.636,-3.34 1.908,-4.612c1.246,-1.245 2.77,-1.868 4.572,-1.868l0.119,0c1.802,0 3.326,0.623 4.571,1.868c1.272,1.272 1.908,2.81 1.908,4.612l0,41.102Z" style="fill:url(#_Linear5);fill-rule:nonzero;"/><path d="M342.055,58.997c2.253,-0 4.307,0.622 6.162,1.868c1.802,1.219 3.114,2.822 3.935,4.81l-20.233,-0c0.848,-1.988 2.173,-3.591 3.975,-4.81c1.855,-1.246 3.909,-1.868 6.161,-1.868Zm17.65,27.11c0.344,-1.458 0.04,-2.769 -0.914,-3.935c-0.928,-1.193 -2.134,-1.776 -3.618,-1.749l-13.118,-0c-2.305,-0 -4.399,-0.65 -6.28,-1.948c-1.829,-1.246 -3.141,-2.902 -3.936,-4.969l28.184,-0c1.06,-0 1.974,-0.358 2.743,-1.073c0.768,-0.743 1.152,-1.63 1.152,-2.664l0,-0.04c0,-5.565 -2.027,-10.308 -6.082,-14.23c-4.028,-3.923 -8.891,-5.884 -14.588,-5.884c-0.398,0 -0.795,0.014 -1.193,0.04c-0.397,-0.026 -0.795,-0.04 -1.192,-0.04c-5.698,0 -10.574,1.961 -14.629,5.884c-4.028,3.922 -6.042,8.665 -6.042,14.23c0,5.539 2.014,10.269 6.042,14.192c4.055,3.922 8.931,5.883 14.629,5.883c0.397,-0 0.795,-0.013 1.192,-0.04c0.398,0.027 0.795,0.04 1.193,0.04c4.081,-0 8.069,-0.013 11.965,-0.04c1.06,-0.026 2.014,-0.371 2.862,-1.033c0.822,-0.663 1.352,-1.511 1.59,-2.545l0.04,-0.079Z" style="fill:url(#_Linear6);fill-rule:nonzero;"/><defs><linearGradient id="_Linear1" x1="0" y1="0" x2="1" y2="0" gradientUnits="userSpaceOnUse" gradientTransform="matrix(247.491,57.211,-13.2251,57.211,116.427,32.8403)"><stop offset="0" style="stop-color:#00cdff;stop-opacity:1"/><stop offset="1" style="stop-color:#007b98;stop-opacity:1"/></linearGradient><linearGradient id="_Linear2" x1="0" y1="0" x2="1" y2="0" gradientUnits="userSpaceOnUse" gradientTransform="matrix(247.491,57.211,-13.2251,57.211,116.427,32.8403)"><stop offset="0" style="stop-color:#00cdff;stop-opacity:1"/><stop offset="1" style="stop-color:#007b98;stop-opacity:1"/></linearGradient><linearGradient id="_Linear3" x1="0" y1="0" x2="1" y2="0" gradientUnits="userSpaceOnUse" gradientTransform="matrix(247.491,57.211,-13.2251,57.211,116.427,32.8403)"><stop offset="0" style="stop-color:#00cdff;stop-opacity:1"/><stop offset="1" style="stop-color:#007b98;stop-opacity:1"/></linearGradient><linearGradient id="_Linear4" x1="0" y1="0" x2="1" y2="0" gradientUnits="userSpaceOnUse" gradientTransform="matrix(247.491,57.211,-13.2251,57.211,116.427,32.8403)"><stop offset="0" style="stop-color:#00cdff;stop-opacity:1"/><stop offset="1" style="stop-color:#007b98;stop-opacity:1"/></linearGradient><linearGradient id="_Linear5" x1="0" y1="0" x2="1" y2="0" gradientUnits="userSpaceOnUse" gradientTransform="matrix(247.491,57.211,-13.2251,57.211,116.427,32.8403)"><stop offset="0" style="stop-color:#00cdff;stop-opacity:1"/><stop offset="1" style="stop-color:#007b98;stop-opacity:1"/></linearGradient><linearGradient id="_Linear6" x1="0" y1="0" x2="1" y2="0" gradientUnits="userSpaceOnUse" gradientTransform="matrix(247.491,57.211,-13.2251,57.211,116.427,32.8403)"><stop offset="0" style="stop-color:#00cdff;stop-opacity:1"/><stop offset="1" style="stop-color:#007b98;stop-opacity:1"/></linearGradient></defs></svg>